<?xml version="1.0" standalone="no"?>
<!DOCTYPE svg PUBLIC "-//W3C//DTD SVG 20010904//EN"
 "http://www.w3.org/TR/2001/REC-SVG-20010904/DTD/svg10.dtd">
<svg version="1.0" xmlns="http://www.w3.org/2000/svg"
 width="4500.000000pt" height="2500.000000pt" viewBox="0 0 4500.000000 2500.000000"
 preserveAspectRatio="xMidYMid meet">

<g transform="translate(0.000000,2500.000000) scale(0.100000,-0.100000)"
fill="#000000" stroke="none">
<path d="M4334 20174 c17 -68 406 -1794 406 -1802 0 -5 -46 -26 -102 -46 -772
-286 -1532 -794 -2084 -1393 -390 -424 -670 -830 -914 -1328 -308 -629 -481
-1266 -541 -1985 -16 -199 -14 -673 5 -878 95 -1041 456 -1991 1070 -2812 210
-282 548 -643 811 -869 820 -703 1821 -1147 2885 -1280 478 -60 1045 -53 1515
20 1316 202 2514 879 3368 1901 740 887 1177 1974 1258 3132 15 216 7 740 -15
931 -60 531 -168 975 -353 1445 -67 170 -231 520 -243 520 -4 0 -402 -196
-884 -435 l-877 -434 45 -89 c189 -376 313 -810 356 -1241 15 -151 12 -524 -5
-686 -86 -808 -436 -1538 -1015 -2115 -553 -552 -1243 -890 -2030 -997 -189
-25 -700 -25 -875 0 -581 84 -1033 254 -1495 562 -194 129 -339 245 -500 401
-440 427 -763 962 -929 1542 -237 830 -165 1704 205 2472 279 578 689 1049
1224 1405 223 149 542 318 560 298 4 -4 94 -393 200 -863 105 -470 193 -856
195 -858 1 -1 13 12 27 30 96 128 2479 3430 2476 3433 -6 6 -3719 2036 -3735
2042 -13 5 -15 2 -9 -23z"/>
<path d="M18230 13260 l0 -5330 1040 0 1040 0 1 1243 0 1242 491 505 c269 278
495 505 500 505 6 0 394 -785 863 -1745 l852 -1745 1158 -3 c1097 -2 1157 -1
1150 15 -5 16 -2288 4428 -2471 4778 l-73 141 961 1054 c528 580 1118 1227
1310 1438 l349 382 -1263 0 -1263 -1 -1280 -1478 -1280 -1479 -3 2904 -2 2904
-1040 0 -1040 0 0 -5330z"/>
<path d="M26192 17633 l3 -958 1030 0 1030 0 3 958 2 957 -1035 0 -1035 0 2
-957z"/>
<path d="M16675 15933 c-458 -36 -804 -135 -1100 -314 -257 -156 -551 -444
-750 -738 l-50 -73 -3 466 -2 466 -965 0 -965 0 0 -3905 0 -3905 1030 0 1029
0 4 2183 c3 2014 4 2191 20 2296 50 329 138 580 275 786 250 377 626 585 1202
667 145 20 651 17 807 -5 67 -9 129 -17 137 -17 14 0 16 100 16 1050 l0 1050
-322 -2 c-178 -1 -341 -3 -363 -5z"/>
<path d="M39990 15934 c-19 -2 -98 -9 -175 -15 -599 -46 -1141 -187 -1555
-406 -226 -120 -385 -237 -566 -417 -198 -199 -302 -345 -425 -601 -163 -339
-246 -693 -275 -1182 l-7 -113 962 0 c528 0 961 2 961 4 0 3 9 54 21 113 96
498 351 811 777 953 434 145 1119 107 1497 -83 304 -152 449 -389 432 -702
-13 -217 -57 -326 -181 -450 -61 -60 -103 -91 -171 -127 -235 -122 -443 -171
-1150 -274 -714 -103 -1027 -158 -1370 -243 -941 -233 -1478 -598 -1770 -1204
-185 -384 -265 -819 -252 -1376 6 -251 22 -383 72 -573 196 -752 785 -1256
1671 -1432 319 -63 545 -81 944 -73 295 6 406 16 638 57 609 109 1140 363
1525 729 57 55 107 98 111 94 3 -3 6 -25 6 -47 0 -99 61 -441 101 -573 l20
-63 959 0 960 0 0 2563 c0 1610 -4 2623 -10 2727 -97 1582 -837 2420 -2346
2655 -313 49 -441 57 -919 60 -247 2 -466 1 -485 -1z m1689 -4644 c-10 -503
-17 -604 -59 -765 -63 -243 -179 -466 -346 -665 -287 -343 -718 -574 -1194
-641 -139 -19 -452 -17 -570 4 -476 87 -711 372 -710 860 1 392 143 655 464
855 239 150 545 249 1141 367 753 150 1035 243 1230 404 27 22 50 39 51 38 1
-1 -2 -207 -7 -457z"/>
<path d="M26190 11835 l0 -3905 1035 0 1035 0 0 3905 0 3905 -1035 0 -1035 0
0 -3905z"/>
<path d="M29110 13128 c0 -1701 4 -2655 10 -2733 83 -966 565 -1741 1357
-2179 327 -181 711 -297 1143 -347 139 -16 535 -16 680 0 807 89 1438 447
1715 972 l55 104 0 -720 c0 -775 -2 -815 -55 -1032 -128 -534 -501 -965 -960
-1112 -170 -55 -235 -65 -435 -65 -655 0 -1115 215 -1384 647 -118 189 -206
517 -206 768 l0 69 -962 0 -961 0 6 -182 c21 -587 139 -1079 365 -1522 131
-258 278 -462 477 -662 476 -478 1119 -760 1975 -865 242 -30 789 -37 1030
-14 1386 132 2447 873 2914 2038 123 306 194 596 243 987 15 124 17 471 20
4298 l3 4162 -1035 0 -1035 0 -3 -2497 c-3 -2778 4 -2522 -68 -2738 -154 -463
-535 -801 -1049 -930 -354 -90 -790 -67 -1083 55 -91 38 -229 126 -304 194
-146 132 -276 371 -334 612 -56 238 -53 68 -56 2797 l-3 2507 -1030 0 -1030 0
0 -2612z"/>
</g>
</svg>
